# xmcd
#
# Track frame offsets:
#	150
#	24819
#	41115
#	56092
#	70209
#	90188
#	103739
#	120726
#	138920
#	153557
#	167873
#	183821
#	202263
#	219357
#	242029
#	261384
#
# Disc length: 3746 seconds
#
# Revision: 0
# Processed by: cddbd v1.5.2PL0 Copyright (c) Steve Scherf et al.
# Submitted via: EZCDAudioConverter 2.1.5.1
#
DISCID=e20ea010
DTITLE=Various Artist - THE BEST OF VALCOUR RECORDS 2006-2011
DYEAR=2012
DGENRE=Country
TTITLE0=PINE LEAF BOYS - PINE GROVE BLUES
TTITLE1=CEDRIC WATSON - LA VIEILLE CHANSON DE MARDI GRAS
TTITLE2=WAYNE TOUPS, STEVE RILEY AND WILSON SAVOY - COURTBOUILLON
TTITLE3=CEDRIC WATSON AND COREY LEDET - BROKEN HEARTED
TTITLE4=FEUFOLLET - FEMME L'A DIT
TTITLE5=LINZAY YOUNG AND JOEL SAVOY - LA VALSE À POP
TTITLE6=CEDRIC WATSON - COCHON DE LAIT
TTITLE7=BONSOIR CATIN - MON AIMABLE BRUNE
TTITLE8=CEDRIC WATSON AND COREY LEDET - GOIN DOWN TO LOUISIANA
TTITLE9=THE CAJUN COUNTRY REVIVAL - OUVRE LA PORTE
TTITLE10=THE RED STICK RAMBLERS - BLUES DE SAOULARD
TTITLE11=CEDRIC WATSON AND BIJOU CREOLE - LE SUD DE LA LOUISIANE
TTITLE12=PINE LEAF BOYS - FOOL
TTITLE13=CEDRIC WATSON AND BIJOU CREOLE - AFRO ZYDECO
TTITLE14=THE CAJUN COUNTRY REVIVAL - THE RIGHT COMBINATION
TTITLE15=CEDRIC WATSON AND BIJOU CREOLE - ZYDECO PARADISE
EXTD=
EXTT0=
EXTT1=
EXTT2=
EXTT3=
EXTT4=
EXTT5=
EXTT6=
EXTT7=
EXTT8=
EXTT9=
EXTT10=
EXTT11=
EXTT12=
EXTT13=
EXTT14=
EXTT15=
PLAYORDER=
